<?xml version="1.0" encoding="utf-8"?>
<!-- Generator: Adobe Illustrator 16.0.0, SVG Export Plug-In . SVG Version: 6.00 Build 0)  -->
<!DOCTYPE svg PUBLIC "-//W3C//DTD SVG 1.1//EN" "http://www.w3.org/Graphics/SVG/1.1/DTD/svg11.dtd">
<svg version="1.1" id="Layer_1" xmlns="http://www.w3.org/2000/svg" xmlns:xlink="http://www.w3.org/1999/xlink" x="0px" y="0px"
	 width="200px" height="200px" viewBox="0 0 150 150" enable-background="new 0 0 150 150" xml:space="preserve">
<g>
	<g>
		<path opacity="0.8" fill="#FFFFFF" enable-background="new    " d="M82.799,91.068c0,0-6.93,11.598-16.725,16.943
			c0,0-3.579,2.156-7.431-16.943c0,0-0.547,5.029,3.388,20.33c1.793,6.974,5.138,14.974,5.138,14.974s7.696-15.91,9.729-20.877
			C81.925,93.208,82.799,91.068,82.799,91.068z"/>
		<path opacity="0.5" fill="#FFFFFF" enable-background="new    " d="M54.926,45.928c0,0-2.306-5.052-0.437-8.582
			c0,0-2.931-5.35,0.373-5.029c0,0,1.185-13.316,7.328-10.585c0,0,11.036-1.366,8.418-0.369c-3.442,1.517,8.498-3.318,15.707,3.784
			c0,0,2.39,2.82,4.268,3.061c0,0,2.128,0.694,2.23,3.992c0,0,2.852,1.572,2.397,6.017c0,0-1.999,3.445,2.002,3.668
			c0,0,5.005,0.445,1.557,5.338c0,0,3.148,7.67-4.931,14.386c0,0,1.099,4.764-1.312,2.132c-1.202-1.312,0.766-6.011,0.766-11.913
			c0-3.883-1.968-1.97-3.825-4.591c0,0,0.766-18.581-18.144-19.455c0,0-7.542-0.109-13.882,14.811
			C56.992,43.647,55.051,46.702,54.926,45.928z"/>
		<path opacity="0.3" fill="#FFFFFF" enable-background="new    " d="M89.902,72.377c0,0,17.917,2.383,21.265,9.414
			c4.735,9.938,2.141,46.99,2.141,46.99H67.829l0,0C67.829,128.781,89.683,84.291,89.902,72.377z"/>
		<path opacity="0.5" fill="#FFFFFF" enable-background="new    " d="M66.95,87.025c0,0,0.301,9.232,6.558,13.442l4.372-4.699
			c0,0-5.7-3.071-7.87-8.415L66.95,87.025z"/>
		<path opacity="0.3" fill="#FFFFFF" enable-background="new    " d="M57.551,83.527c0,0-3.607,18.473,9.64,45.474H36.455
			c0,0-1.967-35.584,2.132-46.403c1.437-3.795,13.717-10,13.717-10c1.312,3.498,2.704,5.471,3.388,6.886
			C57.277,82.763,57.551,83.527,57.551,83.527z"/>
		<path opacity="0.3" fill="#FFFFFF" enable-background="new    " d="M52.303,72.596c0,0-3.666,10.177-5.574,14.442l2.667,3.673
			l-5.446,2.057c0,0-1.113,9.139,15.901,36.233h7.339c0,0-8.274-10.989-9.75-39.19c-0.095-1.832-0.109-6.612-0.109-6.612
			l-2.186-4.479L52.303,72.596z"/>
		<path opacity="0.5" fill="#FFFFFF" enable-background="new    " d="M62.251,100.688c0,0,4.311-8.627,4.571-13.679l-2.206-0.645
			c0,0-2.588,6.162-4.388,7.956L62.251,100.688z"/>
		<path fill="#FFFFFF" d="M63.889,92.938l2.459-6.24l-7.326-3.315C59.023,83.383,60.861,89.95,63.889,92.938z"/>
		<path fill="#FFFFFF" d="M67.441,86.806l3.116,7.923c0,0,4.113-1.741,8.593-5.831c3.407-3.104,5.506-8.543,5.506-8.543
			s-5.553,3.001-9.182,4.046L67.441,86.806z"/>
		<path fill="#FFFFFF" d="M87.94,47.994c-0.691,5.577-0.537,7.874-3.031,11.875c-3.967,6.368-7.165,2.127-13.04,1.154
			c-2.873-0.476-5.164,1.305-8.307,1.305c-3.189,0-4.636-8.151-4.919-10.752C57.5,41.063,64.996,29.313,72.36,29.204
			C81.519,29.067,89.217,37.702,87.94,47.994z"/>
		<g opacity="0.8">
			<path fill="#FFFFFF" d="M57.55,45.053c0,0-3.68,3.439-2.825,15.084c0,0-1.578,3.039-1.386,5.979c0,0-0.926,6.261,4.977,13.803
				c0,0,1.802,4.372,11.774,4.067c0,0,15.198-1.604,18.501-12.491c0,0,2.874-4.629,3.716-20.432c0,0-3.934-4.699-3.716,1.729
				c0.11,3.228-3.489,11.779-8.073,11.758c-4.619-0.019-7.706-4.029-15.791-0.887c-2.581,1.001-4.967-0.687-6.823-7.984
				C56.771,51.227,58.107,44.31,57.55,45.053z"/>
		</g>
		<path opacity="0.3" fill="#FFFFFF" enable-background="new    " d="M89.902,72.377c0,0,11.587-0.109,11.719,19.249l-6.436,2.325
			l8.475,4.265c0,0-9.976,16.885-26.738,30.785h-9.101C67.82,129.001,83.733,99.757,89.902,72.377z"/>
	</g>
</g>
</svg>
